# xmcd CD database file
#
# Track frame offsets:
#	150
#	12440
#	30560
#	39797
#	52370
#	62513
#	79194
#	90767
#	103078
#	123098
#	139942
#	153355
#	167629
#	178077
#	189906
#	203408
#	228963
#	243827
#	256495
#	266987
#	280113
#	291654
#
# Disc length: 4062 seconds
#
# Revision: 1
# Processed by: cddbd v1.5.2PL0 Copyright (c) Steve Scherf et al.
# Submitted via: CDex 1.70beta2
#
DISCID=2b0fdc16
DTITLE=Various Artist - Something Swingin' 3.1
DYEAR=2004
DGENRE=Jazz
TTITLE0=Dooley Wilson - As Time Goes By
TTITLE1=Ella Fitzgerald - Let's Fall In Love
TTITLE2=Peggy Lee - Somebody Loves Me
TTITLE3=Vic Damone - Almost Like Being In Love
TTITLE4=Dean Martin - Memories Are Made Of This
TTITLE5=Doris Day - Sentimental Journey
TTITLE6=Andy Williams - Somewhere, My Love (Lara's Theme)
TTITLE7=Brenda Lee - All Alone Am I
TTITLE8=Michael Buble - Put Your Head On My Shoulder
TTITLE9=Natalie Cole - Mona Lisa
TTITLE10=Brook Benton - A House Is Not A Home
TTITLE11=Dionne Warwick - Anyone Who Had a Heart
TTITLE12=Chet Baker - My Funny Valentine
TTITLE13=Cilla Black - Alfie
TTITLE14=Rosemary Clooney and Buddy Cole - Hey There
TTITLE15=Fred Astaire - Cheek To Cheek
TTITLE16=Michael Feinstein - Ask Me Again
TTITLE17=Johnny Mathis - Wonderful! Wonderful!
TTITLE18=Anthony Newley - Do You Mind
TTITLE19=Petula Clark - I Couldn't Live Without Your Love
TTITLE20=Bobby Darin - Things
TTITLE21=Mickey and Sylvia - Love Is Strange
EXTD=YEAR: 2004
EXTT0=
EXTT1=
EXTT2=
EXTT3=
EXTT4=
EXTT5=
EXTT6=
EXTT7=
EXTT8=
EXTT9=
EXTT10=
EXTT11=
EXTT12=
EXTT13=
EXTT14=
EXTT15=
EXTT16=
EXTT17=
EXTT18=
EXTT19=
EXTT20=
EXTT21=
PLAYORDER=
